# xmcd
#
# Track frame offsets:
#	151
#	17827
#	31201
#	52514
#	63889
#	94989
#	106134
#	125593
#	149097
#	173519
#
# Disc length: 2579 seconds
#
# Revision: 0
# Processed by: cddbd v1.5.2PL0 Copyright (c) Steve Scherf et al.
# Submitted via: EasyCDDAExtractor 11.0.3.1
#
DISCID=7c0a110a
DTITLE=Luke Wallin - When You Try To Steal The Blues
DYEAR=1900
DGENRE=Blues
TTITLE0=When You Try To Steal The Blues
TTITLE1=This Good Life
TTITLE2=Red Dreams and Rice
TTITLE3=Workin Woman
TTITLE4=Waiting for Your Love
TTITLE5=Red Dog Moon
TTITLE6=Half of Life Is Dreams
TTITLE7=Yellow Dog Line
TTITLE8=Where Love Can Still Grow
TTITLE9=Water Base Love
EXTD=
EXTT0=
EXTT1=
EXTT2=
EXTT3=
EXTT4=
EXTT5=
EXTT6=
EXTT7=
EXTT8=
EXTT9=
PLAYORDER=
